<svg width="387" height="153" viewBox="0 0 387 153" fill="none" xmlns="http://www.w3.org/2000/svg">
<path fill-rule="evenodd" clip-rule="evenodd" d="M3 136.753V67.3876H52.2632L70.0826 105.012V148.58H64.0259C64.0259 148.58 60.9029 146.536 60.8462 145.116C60.7895 143.697 58.7451 143.242 57.496 143.242C56.2469 143.242 3 143.242 3 143.242V136.753Z" fill="#2DA5D4" stroke="black" stroke-width="6.00001" stroke-miterlimit="22.9256" stroke-linecap="round" stroke-linejoin="round"/>
<path fill-rule="evenodd" clip-rule="evenodd" d="M137.861 136.753V67.3876H88.5974L70.778 105.012V148.58H76.8347C76.8347 148.58 79.9578 146.536 80.0144 145.116C80.0711 143.697 82.1155 143.242 83.3646 143.242C84.6138 143.242 137.861 143.242 137.861 143.242V136.753Z" fill="#148FB8" stroke="black" stroke-width="6.00001" stroke-miterlimit="22.9256" stroke-linecap="round" stroke-linejoin="round"/>
<path fill-rule="evenodd" clip-rule="evenodd" d="M50.0227 130.099H14.2604V59H49.9199C49.9199 59 60.989 58.9112 70.1385 69.5291V140.173C70.1385 140.173 64.5615 131.588 50.0227 130.099Z" fill="#FFFBFB" stroke="black" stroke-width="6.00001" stroke-miterlimit="22.9256" stroke-linecap="round" stroke-linejoin="round"/>
<path fill-rule="evenodd" clip-rule="evenodd" d="M90.8379 130.099H126.6V59H90.9407C90.9407 59 79.8716 58.9112 70.7221 69.5291V140.173C70.7221 140.173 76.2992 131.588 90.8379 130.099Z" fill="white" stroke="black" stroke-width="6.00001" stroke-miterlimit="22.9256" stroke-linecap="round" stroke-linejoin="round"/>
<path d="M27.1932 80.0585H55.2041" stroke="black" stroke-width="6.00001" stroke-miterlimit="22.9256" stroke-linecap="round" stroke-linejoin="round"/>
<path d="M27.1932 93.9305H55.2041" stroke="black" stroke-width="6.00001" stroke-miterlimit="22.9256" stroke-linecap="round" stroke-linejoin="round"/>
<path d="M27.1932 107.536H48.4565" stroke="black" stroke-width="6.00001" stroke-miterlimit="22.9256" stroke-linecap="round" stroke-linejoin="round"/>
<path fill-rule="evenodd" clip-rule="evenodd" d="M298.017 32.1788V52.1453C298.017 52.1453 306.995 67.2797 324.791 67.2797H333.261H345.843C345.843 67.2797 358.161 65.7157 367.315 53.0584V31.5865L334.385 21.6853L298.017 32.1788Z" fill="#1056B9" stroke="black" stroke-width="6.00001" stroke-miterlimit="22.9256" stroke-linecap="round" stroke-linejoin="round"/>
<path fill-rule="evenodd" clip-rule="evenodd" d="M367.092 34.0674V70.515C367.092 70.515 361.512 73.285 361.512 76.0101C361.512 78.7351 361.512 88.5135 361.512 88.5135H373.695V75.7697C373.695 75.7697 373.78 69.8407 367.766 69.8407V34.0674H367.092Z" fill="#1056B9" stroke="black" stroke-width="6.00001" stroke-miterlimit="22.9256" stroke-linecap="round" stroke-linejoin="round"/>
<path fill-rule="evenodd" clip-rule="evenodd" d="M285 26.1723L332.948 3.00001L383.062 25.531L333.751 49.093L285 26.1723Z" fill="#3466D3" stroke="black" stroke-width="6.00001" stroke-miterlimit="22.9256" stroke-linecap="round" stroke-linejoin="round"/>
<path d="M334.456 24.221L359.419 36.828" stroke="black" stroke-width="6.00001" stroke-miterlimit="22.9256" stroke-linecap="round" stroke-linejoin="round"/>
<path d="M96.12 113.92V73.28H94.68L89.4 92.48H79.32V91.52L86.04 68H106.68V113.92H120.6V124H80.28V113.92H96.12Z" fill="black"/>
<path d="M160.04 132L138.28 75.52H151.72L168.28 121.2H162.76L179.56 75.52H192.84L170.84 132H160.04ZM197.648 132.8C194.074 132.8 190.874 131.92 188.048 130.16C185.274 128.4 183.061 126 181.408 122.96C179.808 119.92 179.008 116.453 179.008 112.56C179.008 108.667 179.808 105.2 181.408 102.16C183.061 99.12 185.274 96.72 188.048 94.96C190.874 93.2 194.074 92.32 197.648 92.32C200.261 92.32 202.608 92.8267 204.688 93.84C206.821 94.8533 208.554 96.2667 209.888 98.08C211.221 99.84 211.968 101.867 212.128 104.16V120.96C211.968 123.253 211.221 125.307 209.888 127.12C208.608 128.88 206.901 130.267 204.768 131.28C202.634 132.293 200.261 132.8 197.648 132.8ZM200.128 121.76C202.741 121.76 204.848 120.907 206.448 119.2C208.048 117.44 208.848 115.227 208.848 112.56C208.848 110.747 208.474 109.147 207.728 107.76C207.034 106.373 206.021 105.307 204.688 104.56C203.408 103.76 201.914 103.36 200.208 103.36C198.501 103.36 196.981 103.76 195.648 104.56C194.368 105.307 193.328 106.373 192.528 107.76C191.781 109.147 191.408 110.747 191.408 112.56C191.408 114.32 191.781 115.893 192.528 117.28C193.274 118.667 194.314 119.76 195.648 120.56C196.981 121.36 198.474 121.76 200.128 121.76ZM208.368 132V121.52L210.208 112.08L208.368 102.64V93.12H220.368V132H208.368ZM235.866 149.44C231.599 149.44 227.839 148.693 224.586 147.2C221.386 145.76 218.852 143.707 216.986 141.04L224.506 133.52C225.892 135.173 227.439 136.427 229.146 137.28C230.906 138.133 233.012 138.56 235.466 138.56C238.506 138.56 240.879 137.813 242.586 136.32C244.346 134.827 245.226 132.72 245.226 130V120.08L247.306 111.6L245.466 103.12V93.12H257.466V129.68C257.466 133.68 256.532 137.147 254.666 140.08C252.799 143.013 250.239 145.307 246.986 146.96C243.732 148.613 240.026 149.44 235.866 149.44ZM235.306 130.8C231.732 130.8 228.559 129.947 225.786 128.24C223.012 126.533 220.826 124.213 219.226 121.28C217.626 118.347 216.826 115.093 216.826 111.52C216.826 107.893 217.626 104.64 219.226 101.76C220.826 98.8267 223.012 96.5333 225.786 94.88C228.559 93.1733 231.732 92.32 235.306 92.32C237.972 92.32 240.346 92.8267 242.426 93.84C244.559 94.8 246.266 96.1867 247.546 98C248.879 99.76 249.626 101.813 249.786 104.16V118.96C249.626 121.253 248.879 123.307 247.546 125.12C246.266 126.88 244.559 128.267 242.426 129.28C240.292 130.293 237.919 130.8 235.306 130.8ZM237.626 119.92C239.332 119.92 240.799 119.547 242.026 118.8C243.306 118.053 244.266 117.067 244.906 115.84C245.599 114.56 245.946 113.12 245.946 111.52C245.946 109.92 245.599 108.48 244.906 107.2C244.266 105.92 243.306 104.907 242.026 104.16C240.799 103.413 239.332 103.04 237.626 103.04C235.972 103.04 234.506 103.413 233.226 104.16C231.946 104.907 230.959 105.92 230.266 107.2C229.572 108.48 229.226 109.92 229.226 111.52C229.226 113.013 229.572 114.427 230.266 115.76C230.959 117.04 231.919 118.053 233.146 118.8C234.426 119.547 235.919 119.92 237.626 119.92ZM272.744 132.8C269.171 132.8 265.971 131.92 263.144 130.16C260.371 128.4 258.158 126 256.504 122.96C254.904 119.92 254.104 116.453 254.104 112.56C254.104 108.667 254.904 105.2 256.504 102.16C258.158 99.12 260.371 96.72 263.144 94.96C265.971 93.2 269.171 92.32 272.744 92.32C275.358 92.32 277.704 92.8267 279.784 93.84C281.918 94.8533 283.651 96.2667 284.984 98.08C286.318 99.84 287.064 101.867 287.224 104.16V120.96C287.064 123.253 286.318 125.307 284.984 127.12C283.704 128.88 281.998 130.267 279.864 131.28C277.731 132.293 275.358 132.8 272.744 132.8ZM275.224 121.76C277.838 121.76 279.944 120.907 281.544 119.2C283.144 117.44 283.944 115.227 283.944 112.56C283.944 110.747 283.571 109.147 282.824 107.76C282.131 106.373 281.118 105.307 279.784 104.56C278.504 103.76 277.011 103.36 275.304 103.36C273.598 103.36 272.078 103.76 270.744 104.56C269.464 105.307 268.424 106.373 267.624 107.76C266.878 109.147 266.504 110.747 266.504 112.56C266.504 114.32 266.878 115.893 267.624 117.28C268.371 118.667 269.411 119.76 270.744 120.56C272.078 121.36 273.571 121.76 275.224 121.76ZM283.464 132V121.52L285.304 112.08L283.464 102.64V93.12H295.464V132H283.464ZM312.563 132.88C307.923 132.88 303.923 132.133 300.563 130.64C297.256 129.093 294.216 126.773 291.443 123.68L299.603 115.6C301.416 117.68 303.416 119.307 305.603 120.48C307.843 121.6 310.429 122.16 313.363 122.16C316.029 122.16 318.083 121.68 319.523 120.72C321.016 119.76 321.763 118.427 321.763 116.72C321.763 115.173 321.283 113.92 320.323 112.96C319.363 112 318.083 111.173 316.483 110.48C314.936 109.787 313.203 109.12 311.283 108.48C309.416 107.84 307.549 107.12 305.683 106.32C303.816 105.467 302.083 104.427 300.483 103.2C298.936 101.92 297.683 100.347 296.723 98.48C295.763 96.56 295.283 94.16 295.283 91.28C295.283 87.8133 296.109 84.8267 297.763 82.32C299.469 79.8133 301.816 77.92 304.803 76.64C307.789 75.3067 311.229 74.64 315.123 74.64C319.069 74.64 322.669 75.3333 325.923 76.72C329.229 78.1067 331.949 80 334.083 82.4L325.923 90.48C324.216 88.72 322.483 87.4133 320.723 86.56C319.016 85.7067 317.069 85.28 314.883 85.28C312.696 85.28 310.963 85.7067 309.683 86.56C308.403 87.36 307.763 88.5333 307.763 90.08C307.763 91.52 308.243 92.6933 309.203 93.6C310.163 94.4533 311.416 95.2 312.963 95.84C314.563 96.48 316.296 97.12 318.163 97.76C320.083 98.4 321.976 99.1467 323.843 100C325.709 100.853 327.416 101.947 328.963 103.28C330.563 104.56 331.843 106.213 332.803 108.24C333.763 110.213 334.243 112.667 334.243 115.6C334.243 120.987 332.323 125.227 328.483 128.32C324.643 131.36 319.336 132.88 312.563 132.88ZM350.009 132.88C346.009 132.88 342.382 132 339.129 130.24C335.929 128.427 333.395 125.973 331.529 122.88C329.662 119.787 328.729 116.32 328.729 112.48C328.729 108.64 329.662 105.2 331.529 102.16C333.395 99.12 335.929 96.72 339.129 94.96C342.329 93.1467 345.955 92.24 350.009 92.24C354.062 92.24 357.689 93.12 360.889 94.88C364.089 96.64 366.622 99.0667 368.489 102.16C370.355 105.2 371.289 108.64 371.289 112.48C371.289 116.32 370.355 119.787 368.489 122.88C366.622 125.973 364.089 128.427 360.889 130.24C357.689 132 354.062 132.88 350.009 132.88ZM350.009 121.76C351.769 121.76 353.315 121.387 354.649 120.64C355.982 119.84 356.995 118.747 357.689 117.36C358.435 115.92 358.809 114.293 358.809 112.48C358.809 110.667 358.435 109.093 357.689 107.76C356.942 106.373 355.902 105.307 354.569 104.56C353.289 103.76 351.769 103.36 350.009 103.36C348.302 103.36 346.782 103.76 345.449 104.56C344.115 105.307 343.075 106.373 342.329 107.76C341.582 109.147 341.209 110.747 341.209 112.56C341.209 114.32 341.582 115.92 342.329 117.36C343.075 118.747 344.115 119.84 345.449 120.64C346.782 121.387 348.302 121.76 350.009 121.76ZM344.249 88.72L340.249 82.88L352.969 70.96L359.689 80.4L344.249 88.72Z" fill="#EFEFEF"/>
</svg>
